<svg xmlns="http://www.w3.org/2000/svg" viewBox="0 0 32 32" fill="none"><path fill="curretColor" fill-rule="evenodd" d="M10 1.6c.7 0 1.2.5 1.2 1.2v.4h9.6v-.4a1.2 1.2 0 0 1 2.4 0v.6a6 6 0 0 1 1.9.5c1.3.7 2.3 1.7 3 3 .4.8.5 1.7.6 2.7l.1 3.7V22.4a7 7 0 0 1-.7 2.7 6.8 6.8 0 0 1-3 3 7 7 0 0 1-2.7.6l-3.7.1H9.6a7 7 0 0 1-2.7-.7 6.8 6.8 0 0 1-3-3 7 7 0 0 1-.6-2.7l-.1-3.7V9.6c.2-1 .3-1.9.7-2.7a6.8 6.8 0 0 1 3-3 6 6 0 0 1 1.9-.5v-.6c0-.7.5-1.2 1.2-1.2ZM8.8 5.8c-.3 0-.6.2-.8.3-.8.4-1.5 1-2 1.9-.1.4-.3 1-.3 1.8v1.4h20.7V9.8c-.1-.9-.3-1.4-.5-1.8-.4-.8-1-1.5-1.9-2l-.8-.2V6a1.2 1.2 0 0 1-2.4 0v-.4H11.2V6a1.2 1.2 0 0 1-2.4 0v-.2Zm17.6 7.8H5.6v8.6c.1.9.3 1.4.5 1.8.4.8 1 1.5 1.9 2 .4.1 1 .3 1.8.3l3.6.1h8.8c.9-.1 1.4-.3 1.8-.5.8-.4 1.5-1 2-1.9.1-.4.3-1 .3-1.8l.1-3.6v-5Z" clip-rule="evenodd"/></svg>