<svg xmlns="http://www.w3.org/2000/svg" viewBox="0 0 32 32" fill="none"><path fill="curretColor" d="M17.3 9.7a2 2 0 1 1 4 0 2 2 0 0 1-4 0ZM23.1 13.1a2 2 0 1 0 0 4 2 2 0 0 0 0-4ZM6.9 15.1a2 2 0 1 1 4 0 2 2 0 0 1-4 0ZM12.6 7.7a2 2 0 1 0 0 4 2 2 0 0 0 0-4Z"/><path fill="curretColor" fill-rule="evenodd" d="M22.7 22.5c3.4.3 6.9-1.2 6.9-6.5A13.6 13.6 0 0 0 6.4 6.4 13.6 13.6 0 0 0 16 29.6c1.8 0 3.6-1.6 3.2-3.9l-.3-1c-.4-1.6-.7-2.6 1.7-2.5l2 .3Zm.2-2.4h-.4l-1.7-.3c-.9 0-1.9 0-2.8.5a3.2 3.2 0 0 0-1.8 2.7 6.1 6.1 0 0 0 .4 2.3l.2.9v.4c0 .1 0 .2-.2.3a1 1 0 0 1-.6.3A11.2 11.2 0 0 1 4.8 16 11.2 11.2 0 0 1 16 4.8 11.2 11.2 0 0 1 27.2 16c0 2-.7 3-1.2 3.4-.7.6-1.7.8-3 .7Z" clip-rule="evenodd"/></svg>