<svg xmlns="http://www.w3.org/2000/svg" fill="none" viewBox="0 0 32 32"><path fill="currentColor" fill-rule="evenodd" d="M19.01 9.97 6.96 22.02c-.27.28-.43.65-.43 1.04v2.27c0 .08.06.14.14.14h2.27c.4 0 .76-.16 1.04-.43l12.05-12.05L19 9.97Zm1.7-1.7 3.02 3.02 1.5-1.5a.8.8 0 0 0 0-1.14l-1.88-1.88a.8.8 0 0 0-1.13 0l-1.51 1.5ZM5.27 20.32 20.52 5.07a3.2 3.2 0 0 1 4.53 0l1.88 1.88a3.2 3.2 0 0 1 0 4.53L11.68 26.73a3.87 3.87 0 0 1-2.74 1.14H6.67a2.53 2.53 0 0 1-2.54-2.54v-2.27c0-1.03.41-2.01 1.14-2.74Z" clip-rule="evenodd"/></svg>