<svg xmlns="http://www.w3.org/2000/svg" viewBox="0 0 32 32" fill="none"><g fill="curretColor" clip-path="url(#a)"><path fill-rule="evenodd" d="M19.2 13c-.6 1.3-1.4 2.8-2.4 3.8s-2.5 1.8-3.8 2.4c1.3.6 2.8 1.4 3.8 2.4s1.8 2.5 2.4 3.8c.6-1.3 1.4-2.7 2.4-3.8 1-1 2.5-1.8 3.8-2.4-1.3-.6-2.7-1.4-3.8-2.4-1-1-1.8-2.5-2.4-3.8ZM18 9.5c-.7 2.1-1.7 4.4-2.9 5.6a14.7 14.7 0 0 1-6 3 37.6 37.6 0 0 1-1.4.4c-.6.2-.6 1.3 0 1.4a39.5 39.5 0 0 1 1.8.6c2.1.6 4.4 1.6 5.6 2.8a14.7 14.7 0 0 1 3 6 37.5 37.5 0 0 1 .4 1.4c.2.7 1.3.7 1.4 0a39.8 39.8 0 0 1 .6-1.8c.6-2.1 1.6-4.4 2.8-5.6a14.7 14.7 0 0 1 6-3 38.2 38.2 0 0 1 1.4-.4c.7-.1.7-1.2 0-1.4A42.6 42.6 0 0 1 29 18c-2.1-.7-4.4-1.7-5.6-2.9a14.7 14.7 0 0 1-3-6 38.3 38.3 0 0 1-.4-1.4c-.1-.6-1.2-.6-1.4 0a42.3 42.3 0 0 1-.5 1.8Z" clip-rule="evenodd"/><path d="M7 1.2a.6.6 0 0 0-1.2 0l-.6 2a3 3 0 0 1-2 2l-2 .6c-.5.2-.5 1 0 1.2l2 .6a3 3 0 0 1 2 2l.6 2c.2.5 1 .5 1.2 0l.6-2a3 3 0 0 1 2-2l2-.6c.5-.2.5-1 0-1.2l-2-.6a3 3 0 0 1-2-2l-.6-2Z"/></g><defs><clipPath id="a"><path fill="curretColor" d="M0 0h32v32H0z"/></clipPath></defs></svg>