<svg xmlns="http://www.w3.org/2000/svg" fill="none" viewBox="0 0 255 204"><circle cx="183.32" cy="109.51" r="2.33" fill="#3E4042" transform="rotate(-2 183.32 109.51)"/><circle cx="192.64" cy="109.23" r="2.33" fill="#3E4042" transform="rotate(-2 192.64 109.23)"/><circle cx="201.95" cy="108.95" r="2.33" fill="#3E4042" transform="rotate(-2 201.95 108.95)"/><path stroke="#3E4042" stroke-linecap="round" stroke-linejoin="round" stroke-width="4.66" d="m67.83 104.83 4.24-23.37c.3-1.62 2.57-1.73 3.03-.15l4.95 17.23a1.55 1.55 0 0 0 2.9.22L90.65 82c.65-1.42 2.77-1.09 2.95.47l2.93 24.86M106.37 106.41l4.25-23.37c.3-1.62 2.57-1.73 3.02-.15l4.95 17.23a1.55 1.55 0 0 0 2.9.22l7.7-16.75c.66-1.43 2.77-1.1 2.96.46l2.93 24.86M143.62 107.89l4.25-23.38c.29-1.61 2.56-1.73 3.02-.15l4.95 17.24a1.55 1.55 0 0 0 2.9.22l7.7-16.76c.65-1.42 2.77-1.09 2.95.47l2.93 24.86"/><path stroke="#3E4042" stroke-linecap="round" stroke-linejoin="round" stroke-width="4.66" d="M157.81 141.53c-33.16-.76-135.98 1.72-131.6-52.51 4.38-54.24 118.12-35.25 150.56-30.29 30.67 4.69 55.43 21.68 53.4 46.77-.8 9.86-8.4 21.57-13.31 26.9l.96 26.52-21.3-18.61c-11.29 1.4-25.96 1.5-38.7 1.22Z"/></svg>