<?xml version="1.0" encoding="UTF-8"?><!DOCTYPE svg PUBLIC "-//W3C//DTD SVG 1.1//EN" "http://www.w3.org/Graphics/SVG/1.1/DTD/svg11.dtd"><svg xmlns="http://www.w3.org/2000/svg" xmlns:xlink="http://www.w3.org/1999/xlink"><defs>
        <clipPath id="a">
            <path d="M0 0h32v32H0z"/>
        </clipPath>
    </defs><symbol id="ico-mono-calendar" viewBox="0 0 32 32">
    <path fill-rule="evenodd" d="M10 1.6c.7 0 1.2.5 1.2 1.2v.4h9.6v-.4a1.2 1.2 0 012.4 0v.6a6 6 0 011.9.5c1.3.7 2.3 1.7 3 3 .4.8.5 1.7.6 2.7l.1 3.7v9.1a7 7 0 01-.7 2.7 6.8 6.8 0 01-3 3 7 7 0 01-2.7.6l-3.7.1H9.6a7 7 0 01-2.7-.7 6.8 6.8 0 01-3-3 7 7 0 01-.6-2.7l-.1-3.7V9.6c.2-1 .3-1.9.7-2.7a6.8 6.8 0 013-3 6 6 0 011.9-.5v-.6c0-.7.5-1.2 1.2-1.2zM8.8 5.8c-.3 0-.6.2-.8.3-.8.4-1.5 1-2 1.9-.1.4-.3 1-.3 1.8v1.4h20.7V9.8c-.1-.9-.3-1.4-.5-1.8-.4-.8-1-1.5-1.9-2l-.8-.2V6a1.2 1.2 0 01-2.4 0v-.4h-9.6V6a1.2 1.2 0 01-2.4 0v-.2zm17.6 7.8H5.6v8.6c.1.9.3 1.4.5 1.8.4.8 1 1.5 1.9 2 .4.1 1 .3 1.8.3l3.6.1h8.8c.9-.1 1.4-.3 1.8-.5.8-.4 1.5-1 2-1.9.1-.4.3-1 .3-1.8l.1-3.6v-5z" clip-rule="evenodd"/>
</symbol><symbol id="ico-mono-chek" viewBox="0 0 20 21">
    <path fill="currentColor" fill-rule="evenodd" d="M14.78 7.22c.3.3.3.77 0 1.06l-6 6c-.3.3-.77.3-1.06 0l-2.5-2.5a.75.75 0 111.06-1.06l1.97 1.97 5.47-5.47c.3-.3.77-.3 1.06 0z" clip-rule="evenodd"/>
</symbol><symbol id="ico-mono-link-arrow" viewBox="0 0 41 15">
    <path d="M40.7 8.2c.4-.4.4-1 0-1.4L34.3.4A1 1 0 1033 1.8l5.7 5.7-5.7 5.7a1 1 0 001.4 1.4l6.4-6.4zM0 8.5h40v-2H0v2z"/>
</symbol><symbol id="ico-mono-next-arrow" viewBox="0 0 20 20">
    <path fill="currentColor" fill-rule="evenodd" d="M14.48 8.75H2.5a1.25 1.25 0 000 2.5h11.98l-3.26 3.26a1.25 1.25 0 101.77 1.77l5.38-5.38.01-.02a1.25 1.25 0 00-.01-1.78l-5.38-5.38a1.25 1.25 0 10-1.77 1.77l3.26 3.26z" clip-rule="evenodd"/>
</symbol><symbol id="ico-mono-palette" viewBox="0 0 32 32">
    <path d="M17.3 9.7a2 2 0 114 0 2 2 0 01-4 0zm5.8 3.4a2 2 0 100 4 2 2 0 000-4zm-16.2 2a2 2 0 114 0 2 2 0 01-4 0zm5.7-7.4a2 2 0 100 4 2 2 0 000-4z"/>
    <path fill-rule="evenodd" d="M22.7 22.5c3.4.3 6.9-1.2 6.9-6.5A13.6 13.6 0 006.4 6.4 13.6 13.6 0 0016 29.6c1.8 0 3.6-1.6 3.2-3.9l-.3-1c-.4-1.6-.7-2.6 1.7-2.5l2 .3zm.2-2.4h-.4l-1.7-.3c-.9 0-1.9 0-2.8.5a3.2 3.2 0 00-1.8 2.7 6.1 6.1 0 00.4 2.3l.2.9v.4c0 .1 0 .2-.2.3a1 1 0 01-.6.3A11.2 11.2 0 014.8 16 11.2 11.2 0 0116 4.8 11.2 11.2 0 0127.2 16c0 2-.7 3-1.2 3.4-.7.6-1.7.8-3 .7z" clip-rule="evenodd"/>
</symbol><symbol id="ico-mono-pen" viewBox="0 0 32 32">
    <path fill="currentColor" fill-rule="evenodd" d="M19.01 9.97L6.96 22.02c-.27.28-.43.65-.43 1.04v2.27c0 .08.06.14.14.14h2.27c.4 0 .76-.16 1.04-.43l12.05-12.05L19 9.97zm1.7-1.7l3.02 3.02 1.5-1.5a.8.8 0 000-1.14l-1.88-1.88a.8.8 0 00-1.13 0l-1.51 1.5zM5.27 20.32L20.52 5.07a3.2 3.2 0 014.53 0l1.88 1.88a3.2 3.2 0 010 4.53L11.68 26.73a3.87 3.87 0 01-2.74 1.14H6.67a2.53 2.53 0 01-2.54-2.54v-2.27c0-1.03.41-2.01 1.14-2.74z" clip-rule="evenodd"/>
</symbol><symbol id="ico-mono-prev-arrow" viewBox="0 0 20 20">
    <path fill="currentColor" fill-rule="evenodd" d="M5.52 8.75H17.5a1.25 1.25 0 010 2.5H5.52l3.26 3.26a1.25 1.25 0 11-1.77 1.77L1.63 10.9l-.01-.02a1.25 1.25 0 01.01-1.78l5.38-5.38a1.25 1.25 0 111.77 1.77L5.52 8.75z" clip-rule="evenodd"/>
</symbol><symbol id="ico-mono-stars" viewBox="0 0 32 32">
    <g clip-path="url(#a)">
        <path fill-rule="evenodd" d="M19.2 13c-.6 1.3-1.4 2.8-2.4 3.8s-2.5 1.8-3.8 2.4c1.3.6 2.8 1.4 3.8 2.4s1.8 2.5 2.4 3.8c.6-1.3 1.4-2.7 2.4-3.8 1-1 2.5-1.8 3.8-2.4-1.3-.6-2.7-1.4-3.8-2.4-1-1-1.8-2.5-2.4-3.8zM18 9.5c-.7 2.1-1.7 4.4-2.9 5.6a14.7 14.7 0 01-6 3 37.6 37.6 0 01-1.4.4c-.6.2-.6 1.3 0 1.4a39.5 39.5 0 011.8.6c2.1.6 4.4 1.6 5.6 2.8a14.7 14.7 0 013 6 37.5 37.5 0 01.4 1.4c.2.7 1.3.7 1.4 0a39.8 39.8 0 01.6-1.8c.6-2.1 1.6-4.4 2.8-5.6a14.7 14.7 0 016-3 38.2 38.2 0 011.4-.4c.7-.1.7-1.2 0-1.4A42.6 42.6 0 0129 18c-2.1-.7-4.4-1.7-5.6-2.9a14.7 14.7 0 01-3-6 38.3 38.3 0 01-.4-1.4c-.1-.6-1.2-.6-1.4 0a42.3 42.3 0 01-.5 1.8z" clip-rule="evenodd"/>
        <path d="M7 1.2a.6.6 0 00-1.2 0l-.6 2a3 3 0 01-2 2l-2 .6c-.5.2-.5 1 0 1.2l2 .6a3 3 0 012 2l.6 2c.2.5 1 .5 1.2 0l.6-2a3 3 0 012-2l2-.6c.5-.2.5-1 0-1.2l-2-.6a3 3 0 01-2-2l-.6-2z"/>
    </g>
    
</symbol></svg>