<svg xmlns="http://www.w3.org/2000/svg" fill="none" viewBox="0 0 432 311"><rect width="297.42" height="110.47" x="84.2" y="133.11" fill="#fff" rx="34.89" transform="rotate(-10 84.2 133.1)"/><path fill="#2B2B2B" d="m167.55 167.82-3.27.6-9.65-7.43 5.97-9.87 3.3-.6-5.98 9.87 9.63 7.43Zm-13.9 2.53-3.17-17.38 2.57-.47 3.17 17.38-2.58.47Zm17.68-3.22-1.7-9.35-4.07.74-.4-2.24 10.47-1.9.41 2.23-4.07.74 1.7 9.35-2.34.43Zm8.72-3.08a6 6 0 0 1-2.51-4.04 6 6 0 0 1 4.96-7.2 6 6 0 0 1 4.67.95 6 6 0 0 1 2.55 4.04 6 6 0 0 1-.96 4.67 6 6 0 0 1-4.04 2.54 6 6 0 0 1-4.67-.96Zm.45-7.34a3.74 3.74 0 0 0-.54 2.86c.2 1.08.7 1.91 1.51 2.5.82.59 1.76.79 2.83.6a3.55 3.55 0 0 0 2.4-1.56 3.8 3.8 0 0 0 .57-2.87 3.8 3.8 0 0 0-1.54-2.48c-.84-.6-1.77-.8-2.8-.61-1.07.2-1.88.71-2.43 1.56Zm17.09-6.33 6.1-1.11c.95-.18 1.81-.06 2.6.35.8.4 1.32 1.03 1.56 1.87a3.28 3.28 0 0 1-.62 2.75c1.2.42 1.9 1.21 2.11 2.38a3.3 3.3 0 0 1-.6 2.69 3.84 3.84 0 0 1-2.5 1.46l-6.54 1.2-2.11-11.6Zm3.51 6.14.5 2.78 4.23-.77c.38-.06.66-.25.86-.55.2-.32.27-.68.2-1.07-.07-.4-.26-.7-.56-.91a1.2 1.2 0 0 0-1-.25l-4.23.77Zm3-5.01-3.78.69.43 2.37 3.78-.7c.34-.06.6-.22.79-.48.2-.27.27-.57.2-.92-.06-.34-.23-.6-.5-.78a1.17 1.17 0 0 0-.92-.18Zm17.75-2.09-2.22 1.15c-.4-.57-.93-.98-1.58-1.23a3.59 3.59 0 0 0-2.06-.21c-1.06.2-1.87.71-2.43 1.56a3.74 3.74 0 0 0-.54 2.87c.2 1.08.7 1.9 1.52 2.48.82.6 1.76.8 2.82.6a3.6 3.6 0 0 0 2.9-2.63l2.47.28a5.9 5.9 0 0 1-1.72 3.1 6.15 6.15 0 0 1-3.22 1.6 6 6 0 0 1-7.19-5 6 6 0 0 1 4.97-7.2 6.2 6.2 0 0 1 3.6.35 5.8 5.8 0 0 1 2.68 2.28Zm14.16.83-9.58 1.74c.35.86.92 1.52 1.71 1.98.81.44 1.7.57 2.66.4a3.75 3.75 0 0 0 2.8-2l2.39.28a6.33 6.33 0 0 1-4.8 3.9c-1.75.32-3.33 0-4.74-.94a5.96 5.96 0 0 1-2.57-4.03 6 6 0 0 1 4.91-7.2c1.69-.3 3.22.02 4.6.97a6 6 0 0 1 2.51 4.04c.06.33.1.61.1.86Zm-9.9-.12 7.21-1.3a3.75 3.75 0 0 0-7.2 1.3Zm-1.34-7.54a1.52 1.52 0 0 1-.64-1.03 1.53 1.53 0 0 1 1.24-1.82 1.52 1.52 0 0 1 1.8 1.27c.08.44 0 .84-.24 1.18-.24.33-.58.53-1 .61-.44.08-.82 0-1.16-.22Zm5.04-.92a1.53 1.53 0 0 1-.63-1.03 1.52 1.52 0 0 1 1.23-1.82 1.52 1.52 0 0 1 1.8 1.27c.09.44 0 .84-.23 1.18-.24.33-.58.53-1 .61-.44.08-.82 0-1.16-.21Zm25.6 1.64-2.2 1.15c-.41-.56-.94-.97-1.59-1.23a3.58 3.58 0 0 0-2.06-.21c-1.06.2-1.87.71-2.43 1.56a3.73 3.73 0 0 0-.54 2.86c.2 1.09.7 1.92 1.52 2.5.81.6 1.76.8 2.82.6a3.61 3.61 0 0 0 2.9-2.63l2.47.27a5.9 5.9 0 0 1-1.72 3.1 6.16 6.16 0 0 1-3.22 1.6 6 6 0 0 1-7.19-5 6 6 0 0 1 4.97-7.2 6.2 6.2 0 0 1 3.6.35c1.11.47 2 1.23 2.67 2.28Zm4.64 7.67.65 3.55-2.34.43-1.06-5.8 1.78-.32c.47-.7.53-2.04.17-4.02l-1-5.48 9.38-1.7 1.7 9.34 2.1-.39 1.06 5.8-2.34.42-.65-3.55-9.45 1.72Zm1.53-2.6 5.43-.98-1.3-7.1-4.73.86.61 3.37c.28 1.5.27 2.8-.01 3.86Zm22.3-6.84-9.58 1.74c.35.86.93 1.52 1.72 1.97.8.44 1.69.57 2.65.4a3.76 3.76 0 0 0 2.8-2l2.4.28a6.34 6.34 0 0 1-4.8 3.9c-1.75.33-3.33.01-4.75-.94a5.96 5.96 0 0 1-2.57-4.02 6 6 0 0 1 4.92-7.2 6 6 0 0 1 7.11 5.01c.06.32.1.61.1.86Zm-9.89-.12 7.21-1.31a3.76 3.76 0 0 0-7.2 1.31Zm12.3 4.78-.85.16-.4-2.24.67-.12c.51-.1.85-.44 1-1.04.16-.6.12-1.56-.13-2.9l-1.03-5.7 9.27-1.68 2.1 11.59-2.31.42-1.7-9.35-4.64.85.72 3.94c.33 1.8.25 3.22-.24 4.24a3.21 3.21 0 0 1-2.46 1.83Zm16.52-15.3c1.5-.26 2.87.01 4.11.83l-.22-1.21 2.32-.42 2.1 11.58-2.3.43-.23-1.21a5.46 5.46 0 0 1-3.56 2.21 5.5 5.5 0 0 1-4.38-1 6.2 6.2 0 0 1-2.42-4.06 6.26 6.26 0 0 1 .83-4.65 5.5 5.5 0 0 1 3.75-2.5Zm3.38 2.93c-.8-.6-1.7-.8-2.7-.63-.97.18-1.75.7-2.32 1.55-.54.84-.71 1.8-.52 2.86.2 1.06.7 1.9 1.5 2.5.83.58 1.73.8 2.71.61 1-.18 1.76-.69 2.3-1.53.56-.83.74-1.79.55-2.87a3.74 3.74 0 0 0-1.52-2.49Zm7.66 7.36-.85.15-.4-2.24.66-.12c.52-.1.86-.44 1.01-1.03.16-.6.12-1.57-.13-2.9l-1.03-5.7 9.27-1.68 2.1 11.58-2.31.43-1.7-9.35-4.64.84.72 3.94c.33 1.8.25 3.22-.24 4.25a3.22 3.22 0 0 1-2.46 1.83Zm-151.6 44.08 6.11-1.11c.95-.17 1.81-.06 2.6.35.8.4 1.31 1.03 1.56 1.87a3.28 3.28 0 0 1-.62 2.75c1.2.42 1.9 1.21 2.1 2.38a3.31 3.31 0 0 1-.6 2.69 3.84 3.84 0 0 1-2.5 1.46l-6.53 1.2-2.11-11.6Zm3.52 6.14.5 2.78 4.23-.77c.38-.06.66-.25.86-.55.2-.32.27-.68.2-1.08-.07-.39-.26-.7-.56-.9a1.2 1.2 0 0 0-1-.25l-4.23.77Zm3-5.01-3.79.69.44 2.37 3.78-.7c.34-.06.6-.22.79-.48.2-.27.27-.57.2-.92-.06-.34-.23-.6-.51-.78a1.17 1.17 0 0 0-.91-.18Zm9.02 6.52a6 6 0 0 1-2.52-4.03 6 6 0 0 1 4.97-7.2 6 6 0 0 1 4.67.95 6 6 0 0 1 2.54 4.03 6 6 0 0 1-.96 4.67 6 6 0 0 1-4.03 2.54 6 6 0 0 1-4.67-.96Zm.44-7.34a3.74 3.74 0 0 0-.54 2.86c.2 1.09.7 1.92 1.52 2.5.82.6 1.76.8 2.82.6a3.55 3.55 0 0 0 2.4-1.56 3.8 3.8 0 0 0 .57-2.87 3.8 3.8 0 0 0-1.54-2.48c-.84-.6-1.77-.8-2.8-.61-1.06.2-1.87.71-2.43 1.56Zm10.5-5.13 6.1-1.11c.95-.17 1.82-.06 2.6.35.8.4 1.32 1.03 1.56 1.87a3.28 3.28 0 0 1-.61 2.75c1.2.42 1.9 1.21 2.1 2.38a3.3 3.3 0 0 1-.6 2.69 3.85 3.85 0 0 1-2.5 1.47l-6.53 1.19-2.11-11.6Zm3.52 6.14.5 2.78 4.23-.77c.38-.06.66-.25.85-.55.21-.32.28-.68.2-1.07-.06-.4-.25-.7-.56-.91a1.2 1.2 0 0 0-1-.25l-4.22.77Zm3-5.01-3.79.69.43 2.37 3.79-.7c.34-.06.6-.22.79-.48.2-.27.27-.57.2-.92-.06-.34-.23-.6-.51-.78a1.16 1.16 0 0 0-.91-.18Zm11.44 13.56-2.32.42-3.16-17.38 2.32-.42.22 1.2a5.46 5.46 0 0 1 3.56-2.21c1.61-.3 3.06.04 4.36 1.01 1.3.96 2.12 2.3 2.44 4.06.32 1.75.03 3.3-.86 4.65a5.37 5.37 0 0 1-3.72 2.49c-1.5.27-2.87 0-4.12-.83l1.28 7Zm3.48-15.37c-.8-.6-1.7-.81-2.7-.63-.97.18-1.75.7-2.32 1.54-.54.84-.71 1.8-.52 2.86.2 1.07.7 1.9 1.5 2.5.83.59 1.74.8 2.71.62 1-.18 1.77-.7 2.3-1.54.56-.83.74-1.78.55-2.86a3.74 3.74 0 0 0-1.52-2.5Zm17.91.38-9.58 1.75c.35.85.93 1.51 1.72 1.97.8.44 1.7.57 2.65.4a3.75 3.75 0 0 0 2.8-2l2.4.28a6.34 6.34 0 0 1-4.8 3.9c-1.75.32-3.33 0-4.75-.94a5.96 5.96 0 0 1-2.56-4.03 6 6 0 0 1 4.9-7.2 6 6 0 0 1 7.11 5.01c.07.33.1.62.11.86Zm-9.89-.11 7.21-1.32a3.75 3.75 0 0 0-7.2 1.32Zm14.04-3.01 1.31 7.23-2.31.43-2.11-11.59 2.32-.42 5.39 6.38 2.8-7.87 2.34-.43 2.1 11.59-2.34.42-1.3-7.15-2.31 6.43-1.45.26-4.44-5.28Zm16.93 4.4-2.76.5 2.14-4.65a3.8 3.8 0 0 1-3.4-3.16c-.2-1.08 0-2.05.62-2.9a3.84 3.84 0 0 1 2.58-1.62l6.38-1.16 2.11 11.59-2.34.42-.73-3.96-2.57.47-2.03 4.46Zm.16-6.45 4.04-.73-.57-3.14-4.05.73c-.4.08-.73.3-.97.66-.22.34-.29.73-.2 1.18.07.45.28.8.61 1.06.34.24.72.32 1.13.24Zm13.07 3.42a4.14 4.14 0 0 1-.42 2.52c-.15.34-.34.64-.55.9a4.56 4.56 0 0 1-.76.83l-.88-.63.1-.2.16-.28.39-.92a2 2 0 0 0 .16-.99c-.38.02-.73-.1-1.04-.34-.32-.26-.51-.6-.59-1-.07-.42.01-.8.25-1.14.25-.35.6-.57 1.05-.65.5-.09.95.04 1.35.4.4.35.66.85.78 1.5Zm12.03-1.58-1.7-9.34-4.07.74-.4-2.24 10.47-1.9.41 2.23-4.07.74 1.7 9.35-2.34.42Zm8.72-3.07a6 6 0 0 1-2.51-4.04 6 6 0 0 1 4.97-7.2 6 6 0 0 1 4.66.95 6 6 0 0 1 2.55 4.03 6 6 0 0 1-.96 4.67 6 6 0 0 1-4.04 2.55 6 6 0 0 1-4.67-.96Zm.45-7.34a3.73 3.73 0 0 0-.54 2.86c.2 1.08.7 1.91 1.51 2.49.82.6 1.76.8 2.83.6a3.55 3.55 0 0 0 2.4-1.55 3.8 3.8 0 0 0 .57-2.87 3.8 3.8 0 0 0-1.54-2.49c-.84-.59-1.77-.8-2.8-.6-1.06.19-1.88.7-2.43 1.56Zm15.25 5.97-1.7-9.34-4.07.74-.41-2.25 10.48-1.9.4 2.24-4.06.74 1.7 9.34-2.34.43Zm16.95-3.08-2.75.5 2.13-4.65c-.87-.09-1.61-.41-2.23-.97-.62-.58-1-1.31-1.17-2.19-.2-1.08.01-2.05.62-2.9a3.83 3.83 0 0 1 2.58-1.62l6.38-1.16 2.11 11.59-2.34.43-.72-3.97-2.58.47-2.03 4.47Zm.16-6.44 4.04-.74-.57-3.14-4.04.74c-.42.07-.74.29-.98.65-.22.34-.29.74-.2 1.18.08.45.28.8.61 1.06.35.24.73.32 1.14.25Z"/><path fill="#fff" d="M169.2 228.75c38.4-6.11 23.6 35.38 23.6 35.38 21.83-12.94 25.95-24.92 28.9-32.73 1.73-4.56 2.26-8.92 15.03-13.4l-67.54 10.75Z"/><path stroke="#3E4042" stroke-linecap="round" stroke-linejoin="round" stroke-width="4.36" d="M71.3 135.49s-15.2-6.56-31.8-19.83M62.76 163.7s-10.43 1.98-22.1-1.09"/></svg>