<svg xmlns="http://www.w3.org/2000/svg" fill="none" viewBox="0 0 381 349"><path stroke="#3E4042" stroke-linecap="round" stroke-linejoin="round" stroke-width="4.14" d="M299.76 50.49c-67.83-18.38-149.11-3.52-155.91 48.28-5.17 39.37 71.05 75.62 109.88 64.23 15.53-4.56 20.14-18.12 9.76-28.89-15.58-16.15-107.63-24.86 48.65 107.67"/><rect width="282.51" height="104.93" x="42.39" y="133.6" fill="#fff" rx="29" transform="rotate(9 42.4 133.6)"/><path fill="#313131" d="m86.38 187.81-2.45-.39 2.64-16.57 2.45.4 4.63 12.34 8.24-10.3 2.45.4-2.64 16.56-2.45-.39 1.9-11.88-7.2 8.97-1.62-.25-4.05-10.8-1.9 11.91Zm19.77 1.74a5.7 5.7 0 0 1-.98-4.4 5.7 5.7 0 0 1 6.72-4.9 5.7 5.7 0 0 1 3.88 2.33 5.7 5.7 0 0 1 1.01 4.41 5.7 5.7 0 0 1-2.33 3.88 5.7 5.7 0 0 1-4.41 1.01 5.7 5.7 0 0 1-3.89-2.33Zm2.71-6.44a3.55 3.55 0 0 0-1.38 2.4 3.55 3.55 0 0 0 .57 2.7c.55.8 1.33 1.28 2.34 1.44.98.16 1.86-.06 2.64-.64.79-.6 1.26-1.4 1.42-2.39.16-1-.04-1.9-.6-2.71a3.37 3.37 0 0 0-2.32-1.43 3.35 3.35 0 0 0-2.67.63Zm18.51 3.75-7.4 6.3-1.84-.29 1.76-11.05 2.21.36-1.17 7.36 7.4-6.37 1.87.3-1.76 11.04-2.23-.35 1.16-7.3Zm13.72.53-1.42 8.91-2.21-.35 1.76-11.05 10.09 1.6-1.76 11.06-2.21-.36 1.42-8.9-5.67-.91Zm10.59 9.41a5.7 5.7 0 0 1-.98-4.4 5.7 5.7 0 0 1 6.72-4.9 5.7 5.7 0 0 1 3.88 2.33 5.7 5.7 0 0 1 1 4.41 5.7 5.7 0 0 1-2.32 3.88 5.7 5.7 0 0 1-4.42 1.01 5.7 5.7 0 0 1-3.88-2.33Zm2.71-6.44a3.55 3.55 0 0 0-1.39 2.4 3.55 3.55 0 0 0 .58 2.71c.54.8 1.32 1.27 2.34 1.43.98.16 1.86-.06 2.64-.64.78-.6 1.26-1.4 1.41-2.39.16-1-.04-1.9-.6-2.71a3.37 3.37 0 0 0-2.31-1.43 3.35 3.35 0 0 0-2.67.63Zm8.57 9.65-.8-.13.33-2.13.64.1c.5.08.9-.13 1.23-.61.33-.49.6-1.37.8-2.65l.86-5.42 8.84 1.4-1.76 11.06-2.2-.36 1.41-8.9-4.42-.71-.6 3.75c-.27 1.72-.79 2.97-1.55 3.73a3.06 3.06 0 0 1-2.78.87Zm15.82-2.16-.73 4.56-2.21-.35 1.76-11.05 2.2.36-.69 4.37 5.84.93.7-4.37 2.23.35-1.75 11.05-2.24-.36.73-4.56-5.84-.93Zm11.47 5.1a5.7 5.7 0 0 1-.98-4.41 5.7 5.7 0 0 1 6.72-4.9 5.7 5.7 0 0 1 3.88 2.33 5.7 5.7 0 0 1 1.01 4.41 5.7 5.7 0 0 1-2.33 3.89 5.7 5.7 0 0 1-4.41 1 5.7 5.7 0 0 1-3.89-2.32Zm2.72-6.44a3.55 3.55 0 0 0-1.4 2.4 3.55 3.55 0 0 0 .58 2.7c.55.8 1.33 1.27 2.34 1.43.98.16 1.87-.05 2.65-.63.78-.6 1.25-1.4 1.41-2.4.16-1-.04-1.9-.6-2.71a3.37 3.37 0 0 0-2.31-1.43 3.35 3.35 0 0 0-2.67.64Zm12.57 3.2-1.1 6.9-2.2-.35 1.75-11.04 2.21.35 2.82 7.42 5-6.18 2.22.36-1.75 11.05-2.24-.36 1.09-6.83-4.1 5.04-1.38-.22-2.32-6.13Zm13.08 7.75a5.7 5.7 0 0 1-.99-4.4 5.7 5.7 0 0 1 6.72-4.9 5.7 5.7 0 0 1 3.89 2.33 5.7 5.7 0 0 1 1 4.41 5.7 5.7 0 0 1-2.33 3.88 5.7 5.7 0 0 1-4.41 1.01 5.7 5.7 0 0 1-3.88-2.33Zm2.7-6.44a3.55 3.55 0 0 0-1.38 2.4 3.55 3.55 0 0 0 .57 2.71c.55.8 1.33 1.27 2.34 1.43.99.16 1.87-.06 2.65-.64.78-.6 1.25-1.4 1.41-2.39.16-1-.04-1.9-.6-2.71a3.37 3.37 0 0 0-2.31-1.43 3.35 3.35 0 0 0-2.67.63Zm9.89 2.13.56-3.5 2.3.36-.55 3.5c-.16 1 .48 1.62 1.92 1.85.52.08 1.5.16 2.9.24l.77-4.79 2.2.35-1.75 11.05-2.21-.35.66-4.13a35.55 35.55 0 0 1-3.03-.25 4.83 4.83 0 0 1-3.01-1.51 3.33 3.33 0 0 1-.76-2.82Zm20.35 3.5-7.4 6.3-1.84-.3 1.76-11.05 2.2.35-1.16 7.37 7.4-6.37 1.87.3-1.76 11.04-2.23-.35 1.16-7.3Zm5.89 8.4-2.63-.41 3.38-3.49a3.6 3.6 0 0 1-2.05-3.9 3.64 3.64 0 0 1 4.29-3.04l6.08.97-1.76 11.04-2.23-.35.6-3.78-2.45-.4-3.23 3.37Zm2.17-5.71 3.85.61.48-3-3.85-.6c-.4-.07-.76.02-1.08.27-.3.24-.5.57-.56 1-.07.42 0 .8.22 1.14.23.32.55.52.94.58Zm-168.58-4.77 5.81.92c.9.15 1.64.52 2.22 1.14.59.61.86 1.33.8 2.16a3.12 3.12 0 0 1-1.41 2.27 2.83 2.83 0 0 1 1.14 2.8c-.15.97-.62 1.7-1.39 2.22-.77.52-1.67.7-2.7.53l-6.23-1 1.76-11.04Zm1.2 6.6-.41 2.66 4.02.64c.36.06.68-.02.95-.22.28-.23.46-.53.52-.9.06-.38-.02-.71-.22-1-.2-.3-.46-.47-.82-.53l-4.03-.64Zm4.27-3.54-3.6-.57-.36 2.25 3.6.58c.33.05.62-.01.87-.2.26-.17.42-.42.47-.75.05-.32-.02-.61-.22-.86-.17-.25-.43-.4-.76-.45Zm16.56 3.72-2.34.33a3.3 3.3 0 0 0-1.03-1.6c-.5-.45-1.1-.73-1.78-.84a3.35 3.35 0 0 0-2.67.64 3.55 3.55 0 0 0-1.39 2.4 3.55 3.55 0 0 0 .58 2.7c.55.8 1.33 1.27 2.34 1.43a3.43 3.43 0 0 0 3.43-1.44l2.12 1.02a5.6 5.6 0 0 1-2.52 2.24 5.85 5.85 0 0 1-3.39.42 5.7 5.7 0 0 1-4.86-6.74 5.7 5.7 0 0 1 6.72-4.9 5.9 5.9 0 0 1 3.11 1.45 5.5 5.5 0 0 1 1.68 2.89Zm12.43 5.2-9.13-1.45c.04.88.35 1.65.92 2.3a3.73 3.73 0 0 0 2.25 1.2c1.22.2 2.27-.11 3.14-.91l2.05 1a6.02 6.02 0 0 1-5.53 1.99 5.9 5.9 0 0 1-3.95-2.34 5.66 5.66 0 0 1-1.03-4.42 5.7 5.7 0 0 1 6.67-4.9 5.7 5.7 0 0 1 4.8 6.73c-.06.31-.12.58-.19.8Zm-8.82-3.22 6.87 1.1a3.57 3.57 0 0 0-6.87-1.1Zm1.17-7.19c-.24-.32-.32-.7-.25-1.12a1.45 1.45 0 0 1 1.68-1.24 1.45 1.45 0 0 1 1.21 1.7c-.06.43-.26.76-.58 1-.32.21-.69.29-1.1.22-.4-.06-.73-.25-.96-.56Zm4.8.77c-.23-.32-.3-.7-.24-1.12a1.45 1.45 0 0 1 1.68-1.24 1.45 1.45 0 0 1 1.21 1.7c-.06.43-.26.75-.58.99-.32.22-.69.3-1.1.23-.4-.07-.73-.25-.96-.56Zm6.46 14.47a3.89 3.89 0 0 1-1.17 2.13c-.24.25-.5.46-.78.63a4.3 4.3 0 0 1-.94.5l-.6-.84.16-.16.23-.19c.12-.11.33-.35.64-.7.27-.33.42-.6.46-.83-.35-.11-.63-.32-.83-.64-.2-.33-.27-.7-.2-1.09.06-.4.25-.7.57-.94.34-.23.72-.31 1.15-.24.47.07.83.33 1.08.77.25.44.33.98.23 1.6Zm8.25-1.08 2.33-.23c.22 1.16 1.02 1.85 2.41 2.07.79.13 1.46.06 2.02-.18.56-.25.88-.6.95-1.08a1.1 1.1 0 0 0-.25-.93 1.45 1.45 0 0 0-.93-.5l-2.7-.43.3-1.86 2.57.4c.36.07.68 0 .96-.17.28-.17.44-.4.5-.7.06-.42-.11-.82-.52-1.19a3.2 3.2 0 0 0-1.68-.72c-1.37-.22-2.35.19-2.93 1.22l-2.15-.92a4.37 4.37 0 0 1 2.22-2.06c.99-.43 2.1-.55 3.3-.36 1.33.21 2.38.7 3.16 1.49a2.9 2.9 0 0 1 .95 2.61 2.66 2.66 0 0 1-1.62 2.06 2.8 2.8 0 0 1 1.06 2.71 3.05 3.05 0 0 1-1.8 2.31 6.04 6.04 0 0 1-3.7.44 5.88 5.88 0 0 1-3.03-1.34 4.28 4.28 0 0 1-1.42-2.64Zm18.35-5.73c1.43.22 2.57.9 3.43 2.03l.19-1.16 2.2.35-1.75 11.05-2.22-.35.19-1.15a5.18 5.18 0 0 1-3.89.86 5.23 5.23 0 0 1-3.61-2.28 5.89 5.89 0 0 1-.89-4.4c.26-1.65 1-2.95 2.2-3.9a5.23 5.23 0 0 1 4.15-1.05Zm2.11 3.68a3.16 3.16 0 0 0-2.22-1.41 3.29 3.29 0 0 0-2.57.65 3.66 3.66 0 0 0-1.36 2.4 3.66 3.66 0 0 0 .55 2.7c.56.8 1.3 1.27 2.24 1.42.95.15 1.8-.07 2.55-.65a3.55 3.55 0 0 0 1.39-2.4 3.55 3.55 0 0 0-.58-2.71Zm7.8 3.76-.9 5.62-2.2-.35 1.76-11.05 2.2.35-.82 5.23 5.1-4.55 2.72.44-5.19 4.63 3.9 6.49-2.75-.44-3.82-6.37Zm9.01 5.79a5.7 5.7 0 0 1-.98-4.41 5.7 5.7 0 0 1 6.72-4.9 5.7 5.7 0 0 1 3.88 2.33 5.7 5.7 0 0 1 1.01 4.42 5.7 5.7 0 0 1-2.33 3.88 5.7 5.7 0 0 1-4.42 1 5.7 5.7 0 0 1-3.88-2.32Zm2.71-6.44a3.55 3.55 0 0 0-1.38 2.4 3.55 3.55 0 0 0 .57 2.7c.55.8 1.33 1.27 2.34 1.44.98.15 1.86-.06 2.64-.64.79-.6 1.26-1.4 1.42-2.4.16-1-.04-1.9-.6-2.7a3.37 3.37 0 0 0-2.32-1.43 3.35 3.35 0 0 0-2.67.63Zm12.2 5.54-.72 4.57-2.2-.35 1.75-11.05 2.21.35-.7 4.37 5.85.93.7-4.37 2.23.36-1.76 11.04-2.24-.35.73-4.57-5.84-.93Zm10.82-1.32.56-3.51 2.31.37-.56 3.5c-.16 1 .48 1.62 1.92 1.85.53.08 1.5.16 2.91.24l.76-4.8 2.21.36-1.76 11.05-2.2-.35.65-4.13a35.13 35.13 0 0 1-3.03-.26 4.83 4.83 0 0 1-3-1.5 3.33 3.33 0 0 1-.77-2.82Zm22.79 6.52-9.13-1.45c.04.88.35 1.65.91 2.3a3.73 3.73 0 0 0 2.25 1.2c1.23.2 2.28-.1 3.14-.91l2.06 1a6.02 6.02 0 0 1-5.53 1.99 5.9 5.9 0 0 1-3.95-2.34 5.66 5.66 0 0 1-1.04-4.42 5.69 5.69 0 0 1 2.3-3.88 5.64 5.64 0 0 1 4.37-1.02 5.61 5.61 0 0 1 3.81 2.32 5.7 5.7 0 0 1 .99 4.41c-.05.31-.11.58-.18.8Zm-8.83-3.22 6.88 1.1a3.56 3.56 0 0 0-6.88-1.1Zm13.16 4.06-.73 4.57-2.21-.35 1.76-11.05 2.2.35-.69 4.37 5.85.93.7-4.37 2.23.36-1.76 11.05-2.24-.36.73-4.57-5.84-.93Zm15.7 7.19-5.6-.9 1.76-11.04 2.21.35-.6 3.78 3.39.54c1.04.17 1.87.65 2.48 1.45.6.8.81 1.72.65 2.77a3.6 3.6 0 0 1-3.97 3.1l-.32-.05Zm7.41 1.18-2.2-.35 1.75-11.05 2.21.35-1.76 11.05Zm-6.59-6.34-3.39-.54-.48 3.02 3.39.54c.4.06.74-.02 1.05-.26.32-.25.52-.59.59-1.01.06-.43-.02-.81-.25-1.15a1.28 1.28 0 0 0-.91-.6Z"/><path fill="#fff" d="M260.1 275.13c-37.34-6.5-23.5 34.14-23.5 34.14-21.09-12.91-24.93-24.65-27.7-32.3-1.62-4.46-2.08-8.72-14.46-13.27l65.66 11.43Z"/><path stroke="#3E4042" stroke-linecap="round" stroke-linejoin="round" stroke-width="4.14" d="M44.5 115.99S32.5 105.85 21.03 89.22M29 139.3s-10.04-1.07-19.8-7.06"/></svg>