<svg xmlns="http://www.w3.org/2000/svg" fill="none" viewBox="0 0 282 177"><rect width="204.56" height="75.98" x="31.2" y="53.12" fill="#fff" rx="24" transform="rotate(-9 31.2 53.12)"/><path fill="#2B2B2B" d="m91.47 80.99 3.92-8.15-5.66-4.33 2.49-.42 5.76 4.4-.88-5.23 1.95-.33.88 5.24 4-6.06 2.49-.42-3.93 5.96 6.38 6.4-2.4.4-5.07-5.16-1.02 1.54.77 4.53-1.95.33-.77-4.53-1.47-1.12-3.09 6.55-2.4.4Zm20.25-3.42-1.6.27-1.44-8.52 1.78-.3.95 5.65h.03l3.45-6.4 1.6-.26 1.44 8.52-1.78.3-.95-5.65h-.03l-3.45 6.4Zm15.46-5.16a2.3 2.3 0 0 1-.52 1.88c-.22.26-.51.5-.86.7-.35.2-.75.33-1.21.41l-4.17.7-1.44-8.51 4-.68a3.39 3.39 0 0 1 2.18.34 2.18 2.18 0 0 1 1.04 1.5 1.75 1.75 0 0 1-.3 1.37 2 2 0 0 1-.45.46v.04a2.23 2.23 0 0 1 1.35.85c.19.22.32.54.38.94Zm-1.89.14c-.05-.31-.2-.55-.45-.71-.25-.17-.57-.22-.97-.15l-2.3.39.35 2.13 2.3-.39c.41-.07.7-.22.88-.46.18-.23.24-.5.19-.81Zm-.92-3.32a.81.81 0 0 0-.38-.6c-.2-.13-.48-.16-.84-.1l-2.13.35.3 1.78 2.13-.36c.36-.06.6-.18.76-.37.15-.2.2-.42.16-.7Zm6.6 8.93a9.48 9.48 0 0 1-.98.04 4.25 4.25 0 0 1-.39-.08l-.28-1.69.32.1a5.47 5.47 0 0 0 .79-.01c.35-.06.63-.22.85-.48.22-.24.38-.55.46-.93l.2-.95-4.9-7.94 1.96-.32 3.44 5.86h.03l1.32-6.67 1.95-.33-2.12 10.12c-.2.96-.52 1.71-.95 2.26-.42.56-.98.9-1.7 1.02Zm16.84-9.5 1.44.94a4.76 4.76 0 0 1-3.34 2.39 4.57 4.57 0 0 1-3.37-.75 4.57 4.57 0 0 1 .2-7.48c.5-.33 1.06-.54 1.67-.65.6-.1 1.14-.1 1.61 0a4.03 4.03 0 0 1 2.23 1.08l-1.05 1.37c-.2-.18-.43-.35-.68-.48-.23-.11-.5-.2-.8-.27a2.6 2.6 0 0 0-1.02-.01 2.7 2.7 0 0 0-1.77 1.1 2.69 2.69 0 0 0-.43 2.1c.07.4.2.76.38 1.08.2.31.44.57.72.78.28.2.59.34.93.42a2.93 2.93 0 0 0 2.75-.9c.22-.22.4-.46.53-.73Zm10.16-1.45a2.31 2.31 0 0 1-.53 1.88c-.22.27-.5.5-.86.71-.35.2-.75.33-1.21.4l-4.17.71-1.44-8.52 4-.67a3.4 3.4 0 0 1 2.19.34 2.2 2.2 0 0 1 1.03 1.49 1.76 1.76 0 0 1-.3 1.38 2 2 0 0 1-.44.46v.03a2.25 2.25 0 0 1 1.35.85c.18.23.31.54.38.94Zm-1.9.14c-.05-.3-.2-.54-.44-.7-.25-.17-.58-.22-.98-.15l-2.3.38.35 2.13 2.31-.38c.4-.07.7-.22.87-.46.18-.24.25-.51.2-.82Zm-.92-3.31a.81.81 0 0 0-.37-.6c-.21-.13-.49-.17-.84-.1l-2.13.35.3 1.77 2.13-.35c.35-.06.6-.19.75-.37.15-.2.2-.43.16-.7Zm9.12 4.85a4.58 4.58 0 0 1-3.38-.75 4.59 4.59 0 0 1-1.06-6.3c.33-.47.75-.86 1.26-1.18a4.37 4.37 0 0 1 3.48-.58c.58.13 1.1.36 1.56.7.47.32.86.74 1.18 1.24a4.37 4.37 0 0 1 .59 3.48 4.38 4.38 0 0 1-3.63 3.39Zm-.29-1.69c.38-.06.72-.19 1.02-.37.3-.2.56-.43.75-.71a2.94 2.94 0 0 0 .43-2.12 2.8 2.8 0 0 0-.4-1.06 2.47 2.47 0 0 0-1.64-1.2 2.7 2.7 0 0 0-2.85 1.07 2.69 2.69 0 0 0-.43 2.1c.06.4.2.75.38 1.08.2.3.44.56.72.77.27.2.58.34.92.43.36.07.72.08 1.1.01Zm6.65.43-1.44-8.52 1.78-.3.56 3.38 1.7-.29c0-.52.08-1.02.23-1.48.16-.48.38-.9.68-1.28.32-.39.7-.7 1.15-.97a4.8 4.8 0 0 1 3.37-.49 4.1 4.1 0 0 1 2.68 1.94c.32.5.53 1.08.64 1.72a4.67 4.67 0 0 1-.7 3.4 4.35 4.35 0 0 1-2.9 1.77 4.18 4.18 0 0 1-4.2-1.6c-.3-.42-.53-.9-.69-1.41l-1.69.28.6 3.55-1.77.3Zm7.47-2.8c.37-.07.7-.2 1-.38.29-.18.53-.41.72-.69.2-.27.32-.59.38-.94a3.3 3.3 0 0 0 0-1.18c-.07-.43-.2-.8-.38-1.1a2.34 2.34 0 0 0-1.59-1.2 2.65 2.65 0 0 0-1.06-.02 2.6 2.6 0 0 0-1.74 1.06c-.19.27-.31.6-.39.96-.06.35-.05.74.02 1.16.07.43.2.8.37 1.13.19.3.41.56.68.76a2.57 2.57 0 0 0 1.98.43Zm-97.44 36.24-.28-1.69h.22a6.26 6.26 0 0 0 .41-.01c.25-.05.46-.14.63-.27.19-.14.32-.38.4-.7.08-.35.11-.82.09-1.41-.02-.6-.1-1.37-.27-2.33l-.42-2.48 6.57-1.11 1.44 8.52-1.78.3-1.15-6.84-3.02.51.14.8c.2 1.24.3 2.28.28 3.11 0 .83-.1 1.5-.28 2-.18.5-.43.88-.76 1.13a2.63 2.63 0 0 1-1.56.5 2.4 2.4 0 0 1-.66-.03Zm12.7 1.7a8.18 8.18 0 0 1-.98.04 3.93 3.93 0 0 1-.4-.1l-.29-1.68.33.1a4.81 4.81 0 0 0 .78-.01c.36-.06.64-.22.85-.47.23-.25.38-.56.47-.94l.2-.95-4.9-7.93 1.95-.33 3.44 5.86h.04l1.32-6.67 1.95-.33-2.13 10.13c-.2.95-.52 1.7-.95 2.26-.41.55-.98.9-1.69 1.01Zm12.94-6.03-.53-3.1a5.47 5.47 0 0 1-1.26.76c-.27.1-.59.19-.94.25-.46.08-.9.07-1.32-.02-.42-.1-.8-.28-1.13-.54-.33-.26-.62-.6-.86-1-.23-.41-.39-.9-.48-1.45l-.42-2.49 1.77-.3.42 2.49c.1.58.34 1 .71 1.28.39.28.85.37 1.38.28.3-.05.58-.13.8-.23a3.7 3.7 0 0 0 1.05-.72l-.63-3.73 1.77-.3 1.44 8.52-1.77.3Zm4.26-.72-1.44-8.52 1.77-.3 1.16 6.84 3.1-.53-1.15-6.83 1.78-.3 1.15 6.83 3.1-.52-1.15-6.83 1.78-.3 1.43 8.52-11.53 1.94ZM126 97.25a9.5 9.5 0 0 1-.98.04 4.19 4.19 0 0 1-.4-.08l-.28-1.69.32.1a5.43 5.43 0 0 0 .79-.01c.35-.06.64-.22.85-.47.22-.25.38-.56.46-.94l.2-.95-4.9-7.93 1.96-.33 3.44 5.86h.03l1.32-6.67 1.95-.33-2.12 10.13c-.2.95-.52 1.7-.95 2.25-.42.56-.98.9-1.7 1.02Zm7.62-5.12-1.44-8.52 1.78-.3.56 3.37 1.69-.28c0-.53.09-1.02.24-1.48.15-.48.38-.9.68-1.29.31-.38.7-.7 1.15-.96a4.8 4.8 0 0 1 3.37-.5 4.1 4.1 0 0 1 2.68 1.94c.32.51.53 1.09.64 1.72a4.67 4.67 0 0 1-.7 3.4 4.35 4.35 0 0 1-2.9 1.78 4.19 4.19 0 0 1-4.2-1.6c-.3-.42-.53-.9-.69-1.41l-1.69.28.6 3.55-1.77.3Zm7.46-2.81c.38-.06.72-.19 1-.37.3-.18.54-.41.72-.69.2-.27.33-.59.4-.94a3.3 3.3 0 0 0 0-1.19c-.08-.42-.2-.79-.4-1.1a2.34 2.34 0 0 0-1.59-1.2 2.65 2.65 0 0 0-1.05-.01 2.6 2.6 0 0 0-1.74 1.06c-.19.27-.32.6-.39.96-.06.35-.06.74.02 1.16.07.43.2.8.37 1.13.19.3.41.56.67.76a2.57 2.57 0 0 0 2 .43Zm8.7.08 2.7-5.65-3.87-2.91 2.22-.37 3.77 2.92-.58-3.46 1.78-.3.58 3.46 2.61-4 2.22-.38-2.7 4.02 4.4 4.46-2.04.34-3.3-3.36-.8 1.23.46 2.75-1.77.3-.47-2.76-1.15-.9-2.02 4.27-2.04.34Zm15.98-2.7-1.6.28-1.44-8.52 1.78-.3.95 5.64h.03l3.45-6.39 1.6-.27 1.44 8.52-1.78.3-.95-5.65-.03.01-3.45 6.39Zm11.2-1.7a4.66 4.66 0 0 1-2.71-.33 3.61 3.61 0 0 1-1-.6l.96-1.34c.21.17.45.3.71.42.23.1.5.18.8.25.3.06.63.06.98 0 .5-.08.85-.26 1.06-.53.22-.28.3-.57.25-.88-.04-.27-.21-.49-.5-.66-.3-.18-.69-.23-1.19-.15l-1.15.2-.27-1.6 1.07-.18c.45-.08.76-.22.95-.43.19-.23.27-.46.23-.68a.89.89 0 0 0-.45-.64c-.25-.15-.6-.19-1.05-.11-.3.05-.58.14-.83.26-.24.12-.44.23-.6.34-.18.15-.34.31-.49.47l-1.34-.96a4.28 4.28 0 0 1 1.62-1.28c.38-.2.84-.34 1.37-.43.51-.09.97-.1 1.39-.03.42.06.79.18 1.1.36.3.18.56.4.75.67a2 2 0 0 1 .3 1.78c-.1.25-.23.46-.38.65-.18.2-.39.37-.63.5v.04a2.39 2.39 0 0 1 1.56.81c.23.22.37.53.44.94.05.33.03.66-.07 1a2.75 2.75 0 0 1-1.49 1.69c-.39.2-.85.36-1.38.45Zm5.31-1.08-1.44-8.52 1.78-.3.57 3.37 4.17-.7-.57-3.37 1.78-.3 1.43 8.52-1.77.3-.6-3.55-4.17.7.6 3.55-1.78.3Zm10.21-1.72-1.44-8.52 1.78-.3.45 2.66 1.95-.33a3.86 3.86 0 0 1 2.56.43 2.95 2.95 0 0 1 1.22 1.95 2.95 2.95 0 0 1-.52 2.24c-.24.3-.55.57-.94.8-.38.2-.82.35-1.33.44l-3.73.63Zm1.5-1.9 1.96-.33c.5-.08.85-.26 1.06-.54.22-.3.3-.64.22-1.04-.06-.4-.25-.7-.55-.9-.29-.2-.68-.26-1.18-.18l-1.95.33.45 2.66Z"/><path fill="#fff" d="M200.77 103.92c-17.85 2.43-5.74 18.85-5.74 18.85-11.4-2.82-14.83-7.59-17.19-10.65-1.37-1.8-2.2-3.66-8.45-3.94l31.38-4.26Z"/><mask id="a" width="208" height="160" x="74" y="17" maskUnits="userSpaceOnUse" style="mask-type:alpha"><path fill="#D9D9D9" d="m160 110 41.5-6 8-1L224 70.25l13.75-17.4L231 40l-21.5-13.5-34.5 4L145.5 17l43 2.5h17l33.5 2 43 85.5-79 46-129 24 86-67Z"/></mask><g mask="url(#a)"><path stroke="#3E4042" stroke-linecap="round" stroke-linejoin="round" stroke-width="3" d="M176.85 27c50.35 7.33 100.06 40.63 89.65 77-7.91 27.64-69 29.76-91.5 11-9-7.5-8.15-17.84 1.85-22 15-6.24 78.65 14.5-63.35 57.5"/></g><path stroke="#3E4042" stroke-linecap="round" stroke-linejoin="round" stroke-width="3" d="M29.54 39.86s-8.8-7.23-17.24-19.16M18.53 56.88s-7.28-.68-14.4-4.93"/></svg>